HIERARCHY
ROOT Hips
{
  OFFSET 74.5537 90.8213 43.4541
  CHANNELS 6 Xposition Yposition Zposition Zrotation Xrotation Yrotation
  JOINT ToSpine
  {
    OFFSET -2.69724 7.43032 -0.144315
    CHANNELS 3 Zrotation Xrotation Yrotation
    JOINT Spine
    {
      OFFSET -0.0310711 10.7595 1.96963
      CHANNELS 3 Zrotation Xrotation Yrotation
      JOINT Spine1
      {
        OFFSET 13.1342 3.43533 0.764692
        CHANNELS 3 Zrotation Xrotation Yrotation
        JOINT Neck
        {
          OFFSET 29.8703 7.82586 -0.130764
          CHANNELS 3 Zrotation Xrotation Yrotation
          JOINT Head
          {
            OFFSET 9.52751 0.295786 -0.907742
            CHANNELS 3 Zrotation Xrotation Yrotation
            End Site
            {
              OFFSET 16.4037 0.713936 2.7358
            }
          }
        }
        JOINT LeftShoulder
        {
          OFFSET 27.5574 4.95586 2.47156
          CHANNELS 3 Zrotation Xrotation Yrotation
          JOINT LeftArm
          {
            OFFSET 1.20734 -0.998971 20.1238
            CHANNELS 3 Zrotation Xrotation Yrotation
            JOINT LeftForeArm
            {
              OFFSET 26.8049 -0.0536703 -0.155908
              CHANNELS 3 Zrotation Xrotation Yrotation
              JOINT LeftHand
              {
                OFFSET 26.6817 0 0.320147
                CHANNELS 3 Zrotation Xrotation Yrotation
                End Site
                {
                  OFFSET 18.6119 0 0.382219
                }
              }
            }
          }
        }
        JOINT RightShoulder
        {
          OFFSET 27.5927 4.71444 -2.65209
          CHANNELS 3 Zrotation Xrotation Yrotation
          JOINT RightArm
          {
            OFFSET 2.83739 -1.17114 -18.7564
            CHANNELS 3 Zrotation Xrotation Yrotation
            JOINT RightForeArm
            {
              OFFSET 28.839 -0.0548439 1.22491
              CHANNELS 3 Zrotation Xrotation Yrotation
              JOINT RightHand
              {
                OFFSET 26.5114 0 -0.101894
                CHANNELS 3 Zrotation Xrotation Yrotation
                End Site
                {
                  OFFSET 18.2168 0 0
                }
              }
            }
          }
        }
      }
    }
  }
  JOINT LeftUpLeg
  {
    OFFSET -4.76168 -1.9167 -10.2353
    CHANNELS 3 Zrotation Xrotation Yrotation
    JOINT LeftLeg
    {
      OFFSET 2.55951 -42.0585 -8.02213
      CHANNELS 3 Zrotation Xrotation Yrotation
      JOINT LeftFoot
      {
        OFFSET 3.16357 -42.5282 -3.95426
        CHANNELS 3 Zrotation Xrotation Yrotation
        JOINT LeftToeBase
        {
          OFFSET 0.346054 -6.02161 12.8035
          CHANNELS 3 Zrotation Xrotation Yrotation
          End Site
          {
            OFFSET 0.134235 -1.35082 5.13018
          }
        }
      }
    }
  }
  JOINT RightUpLeg
  {
    OFFSET -4.94151 -1.41743 10.6446
    CHANNELS 3 Zrotation Xrotation Yrotation
    JOINT RightLeg
    {
      OFFSET -2.56294 -42.0364 -7.94377
      CHANNELS 3 Zrotation Xrotation Yrotation
      JOINT RightFoot
      {
        OFFSET -3.0952 -42.555 -4.02241
        CHANNELS 3 Zrotation Xrotation Yrotation
        JOINT RightToeBase
        {
          OFFSET -0.0828122 -6.13587 12.8035
          CHANNELS 3 Zrotation Xrotation Yrotation
          End Site
          {
            OFFSET -0.131328 -1.35082 5.13018
          }
        }
      }
    }
  }
}
MOTION
Frames:	18
Frame Time:	0.0333333
48.8806 82.8255 -13.8215 -4.52523 -64.0582 -88.5968 -70.1915 0 88.8779 135.356 65.4304 -44.9265 -1.3385 21.7271 2.75416 -159.643 10.5052 177.007 -140.627 48.5148 -175.479 -0.460571 -16.3646 -35.0608 -54.6441 57.1605 -80.045 21.1005 17.6018 -51.3915 0.420957 0.000575189 0.35866 -1.87582 6.22555 44.6205 -85.5316 -31.3978 84.4951 14.4389 -4.88051 71.6326 0.58676 0.000331131 0.0646652 -7.2177 6.67543 100.528 -148.851 82.486 151.715 1.75577 -14.88 -1.27291 9.30967 -19.1194 18.8384 -27.746 -6.52887 97.0314 6.51181 64.562 0.881224 -3.74427 -18.7479 1.49515 1.83928 -24.8643 -20.9886 
52.9223 84.1364 -3.40063 -0.0746244 -62.2353 -84.0885 -70.1915 0 88.8779 135.386 68.1853 -45.2152 -1.99078 24.121 1.94838 -156.886 11.4256 176.314 -139.32 49.2066 -176.19 0.0148863 -14.8031 -32.9418 -42.8082 62.715 -85.0401 20.5065 16.625 -52.0643 0.420957 0.000575189 0.35866 -1.7012 6.25506 41.7813 -84.6637 -34.4534 88.0502 19.6452 -2.77955 82.0928 0.58676 0.000331131 0.0646652 1.43172 9.4233 100.099 -27.6099 82.9045 28.1696 0.325963 -14.6553 -1.25893 6.51362 -15.106 16.1245 -37.542 -10.8133 95.9752 4.17172 57.0555 0.92509 1.39216 -17.8212 1.594 2.50186 -25.7593 -10.6529 
58.072 86.2105 8.50199 5.51033 -60.2095 -78.3149 -70.1915 0 88.8779 129.871 72.4078 -41.9063 -2.85852 25.2508 4.5393 -153.911 13.369 176.778 -140.417 51.6591 -173.958 0.348266 -13.4729 -31.7932 -45.9873 68.6884 -76.117 21.7888 15.0069 -56.5288 0.420957 0.000575189 0.35866 -1.48836 6.10891 39.0466 -85.5064 -35.4407 86.3292 26.8642 -0.0352144 89.7131 0.58676 0.000331131 0.0646652 3.65479 9.81082 101.334 -6.69047 65.0688 0.275945 -3.80688 -6.16505 -0.288062 6.33173 -14.7664 15.0292 -50.0302 -15.3333 92.6441 2.59327 44.9504 3.06587 2.71358 -4.77427 0.272268 4.14398 -31.9174 0.273157 
64.2272 88.7979 21.0066 10.4345 -59.6496 -70.7154 -70.1915 0 88.8779 127.82 74.6828 -36.6644 -2.84438 26.8969 2.9148 -150.419 15.7379 175.788 -143.062 54.6233 -171.366 0.684527 -12.114 -29.1193 -53.0706 73.0119 -64.6924 19.6904 11.9127 -59.4892 0.420957 0.000575189 0.35866 -1.35139 5.85122 37.8763 -85.6715 -34.9252 81.4415 25.8254 1.85491 93.5903 0.58676 0.000331131 0.0646652 1.18574 8.79651 100.43 -3.93302 47.9329 -10.5954 -6.12562 5.68056 1.44392 6.65861 -15.1628 13.4283 -64.1538 -17.8476 76.8882 -1.76917 30.9017 17.7817 5.98313 16.5688 -2.7473 3.18193 -25.9957 -1.38023 
69.657 90.8361 32.9304 12.2494 -58.9043 -64.4819 -70.1915 0 88.8779 124.79 76.8876 -29.1812 -2.66749 29.0003 0.191883 -147.076 17.2114 173.474 -144.907 56.6023 -169.487 0.910673 -11.0144 -26.384 -67.5729 73.3948 -47.6842 18.9336 9.87613 -62.8935 0.420957 0.000575189 0.35866 -1.35354 5.85394 37.901 -84.9604 -34.3887 75.7529 25.9252 1.64595 93.1476 0.58676 0.000331131 0.0646652 0.527059 10.2482 99.2389 -3.27118 41.4055 -11.9196 -4.30618 9.27748 1.52758 5.03991 -11.5747 4.91199 -71.4591 -9.83211 79.2959 -3.78858 28.5061 25.2655 -1.77474 22.2945 -0.980219 2.74079 -14.7077 -28.3577 
74.5537 90.8213 43.4541 16.1266 -57.0376 -58.5998 -70.1915 0 88.8779 119.202 77.5349 -20.823 -1.07487 30.4281 -5.6767 -147.792 18.2202 170.072 -147.26 58.002 -169.011 1.04135 -10.2049 -25.2696 -78.7004 69.5276 -38.8363 16.3748 8.04225 -64.0131 0.420957 0.000575189 0.35866 -1.42709 5.62338 40.1814 -83.7732 -34.1312 72.3604 24.7564 -0.431542 88.8514 0.58676 0.000331131 0.0646652 1.42719 9.50152 99.6986 -2.92438 46.3354 -3.8961 -5.86351 7.88716 1.67794 2.3709 -6.79511 6.00827 -70.1159 -3.33207 92.07 1.01125 42.9269 -6.38076 -3.13629 14.4566 -0.160292 1.31898 -9.76 -1.80753 
79.7446 90.9267 54.4556 25.6954 -55.5934 -48.9165 -70.1915 0 88.8779 112.484 76.2823 -19.0763 -1.42812 28.1052 -2.57662 -148.414 19.3143 171.931 -153.351 59.4995 -163.489 1.16259 -9.52441 -28.4154 -83.8041 62.8798 -39.6978 13.1194 6.55567 -63.4191 0.420957 0.000575189 0.35866 -1.58821 6.27088 39.9494 -80.2267 -35.8409 71.4385 22.0892 -3.59038 81.0578 0.58676 0.000331131 0.0646652 -4.47905 5.8625 100.999 -4.37869 52.8784 -7.23322 -1.30048 5.61908 0.576459 -0.202088 -0.643421 2.55142 -68.4434 -0.13067 88.8786 4.59093 61.2744 -2.20942 0.313501 16.7246 -1.21177 2.14408 -8.92415 -12.602 
84.9795 90.7236 65.1513 33.5803 -54.0468 -42.7921 -70.1915 0 88.8779 109.459 74.6998 -22.9129 -1.77081 26.0673 -0.113507 -149.034 19.4324 172.398 -157.804 59.7889 -159.466 1.31979 -8.84749 -31.3729 -88.4468 55.588 -42.8097 10.3959 4.96685 -64.2915 0.420957 0.000575189 0.35866 -1.78534 6.63922 41.3969 -75.3104 -37.0641 71.7297 19.1847 -6.28803 72.4096 0.58676 0.000331131 0.0646652 -12.4515 2.1966 101.948 -6.17673 58.7548 -9.68731 1.01155 -8.24357 -0.797804 -1.84986 0.670282 7.35559 -62.1871 0.0152985 85.5198 21.0056 81.5776 -22.3937 1.7287 16.401 -1.5694 1.65387 -7.96948 -7.45512 
89.809 90.1886 75.0297 35.7751 -53.3931 -41.4833 -70.1915 0 88.8779 108.78 73.8967 -25.4381 -0.646761 25.7961 -1.62295 -151.639 18.9594 169.638 -157.956 59.377 -160.303 1.01818 -10.2984 -33.5994 -91.9083 48.8257 -48.8953 10.2804 4.37536 -66.7267 0.420957 0.000575189 0.35866 -1.90967 6.4525 44.0627 -70.8893 -38.0632 73.0493 16.8044 -8.22464 64.5882 0.58676 0.000331131 0.0646652 -18.3055 1.67284 104.037 -7.97506 63.57 -9.58207 3.68847 -14.2842 -1.23884 1.07809 -6.31743 13.3399 -49.1255 1.05712 84.4842 164.761 76.2893 -174.028 -2.56815 13.1643 -0.234397 1.6562 -9.66119 -6.23604 
94.6796 90.2069 83.8121 40.4908 -49.3593 -36.1025 -70.1915 0 88.8779 110.069 70.9038 -27.8682 -0.708147 23.0371 -1.87977 -154.582 18.9787 169.047 -158.467 59.1916 -162.061 0.494763 -12.5907 -33.6171 -92.5097 45.3295 -58.5155 13.5448 5.10312 -69.2058 0.420957 0.000575189 0.35866 -1.94315 6.35313 45.0321 -64.6354 -39.9416 74.179 15.0377 -9.30598 58.9298 0.58676 0.000331131 0.0646652 -25.4403 -1.58573 101.987 -8.00811 63.0272 -11.1862 4.3515 -19.7497 -1.47619 2.01619 -8.00976 14.2176 -31.4326 0.714867 79.7299 172.475 61.7397 169.483 -16.8741 13.5499 3.24915 2.13022 -17.2669 -0.324167 
100.61 90.649 93.0294 41.7914 -44.6877 -33.6881 -70.1915 0 88.8779 104.539 68.6215 -22.917 -1.68579 19.6058 -0.4021 -154.869 18.0932 168.207 -157.351 58.1838 -164.456 0.596024 -12.3857 -30.9702 -93.9654 45.6716 -63.7709 18.4265 4.19167 -77.0152 0.420957 0.000575189 0.35866 -2.00438 6.33774 46.0284 -60.9858 -41.5419 70.3075 15.8638 -9.9695 58.6156 0.58676 0.000331131 0.0646652 -32.6309 -4.7583 98.1335 -7.09049 59.74 -13.4816 3.44186 -21.5672 -1.61438 3.35362 -10.1023 14.1639 -12.4168 -0.342902 79.4716 173.075 56.4942 168.429 -14.2971 11.0326 2.50286 2.21817 -17.6602 -6.44922 
107.804 92.2086 103.532 43.7119 -43.2762 -29.5678 -70.1915 0 88.8779 105.94 66.416 -21.1984 -2.40269 17.2926 0.325057 -154.839 17.4761 168.852 -156.283 57.3979 -166.62 0.71662 -11.9321 -29.2377 -92.0488 46.3849 -68.549 20.7962 1.25142 -86.0382 0.420957 0.000575189 0.35866 -1.9053 6.06268 45.8873 -59.655 -43.1494 64.1112 17.3904 -9.6808 61.7094 0.58676 0.000331131 0.0646652 -44.3953 -3.02661 94.956 -5.44556 53.1307 -14.8065 0.84604 -17.593 -1.47848 4.31415 -10.5572 6.97321 -1.43769 0.177619 79.7359 172.175 63.1056 170.48 -14.4877 8.50352 2.42694 2.35316 -19.3434 -4.59867 
115.319 94.6777 114.628 45.1856 -44.5771 -26.6409 -70.1915 0 88.8779 107.117 66.0743 -20.3773 -1.61677 16.4869 2.17243 -154.084 17.0203 169.175 -153.986 56.6921 -169.569 0.770186 -11.75 -27.8949 -89.844 47.1446 -70.0918 22.4776 -2.63292 -95.6097 0.420957 0.000575189 0.35866 -1.84273 5.9943 45.2488 -61.8384 -45.092 57.0946 17.6123 -9.47999 62.5152 0.58676 0.000331131 0.0646652 -58.5964 0.794083 95.2337 -3.65249 41.0868 -16.2214 -2.99 -1.26922 0.163841 8.6551 -18.2204 -3.66592 2.63452 3.56186 80.746 163.416 77.5849 -172.251 -10.4472 8.31226 1.60748 2.33503 -20.2829 -10.1684 
122.758 97.2217 125.388 45.662 -42.229 -22.9869 -70.1915 0 88.8779 102.806 64.7547 -12.6504 -0.602811 14.3774 2.94677 -153.542 16.9895 169.199 -152.366 56.3526 -172.64 0.832928 -11.4505 -27.0166 -88.5805 47.4289 -69.1235 22.447 -6.36819 -104.257 0.420957 0.000575189 0.35866 -1.81983 6.09001 44.4092 -64.2902 -46.5157 51.1819 17.1808 -8.66308 63.9604 0.58676 0.000331131 0.0646652 -65.8659 5.06904 93.4767 -3.13273 34.0988 -21.1161 -10.8067 12.5399 3.45394 3.1326 -5.69564 -3.79756 3.6192 3.48656 79.8218 15.8197 80.1859 -19.8264 -1.88875 10.4254 -0.235551 2.26315 -18.7671 -14.5986 
130.575 98.3859 136.387 45.7694 -39.6965 -24.4716 -70.1915 0 88.8779 92.3181 64.1719 -4.03211 0.207398 13.4448 3.55815 -152.286 16.7566 167.809 -148.731 55.6067 -176.889 0.852631 -11.4013 -25.986 -85.3102 48.1195 -69.3367 21.2793 -8.70594 -110.434 0.420957 0.000575189 0.35866 -1.67182 5.97192 42.6207 -67.6405 -48.0266 47.0144 17.6026 -8.79897 64.1894 0.58676 0.000331131 0.0646652 -70.2272 3.1132 90.5898 -2.42505 33.4326 -16.6091 -8.59758 14.6066 3.23286 -3.13175 3.74641 5.93003 2.05029 1.9942 82.0128 3.57683 58.0163 -2.7838 -1.48593 13.0792 -0.491179 2.41401 -14.4676 -18.2605 
138.336 98.2994 146.919 45.9896 -37.7921 -27.2697 -70.1915 0 88.8779 78.6781 63.1569 6.72181 3.58156 13.0554 3.78525 -154.48 17.015 170.204 -151.678 55.8786 -176.603 0.898416 -11.1685 -24.9805 -80.7137 50.0847 -71.1101 18.9947 -8.67461 -112.834 0.420957 0.000575189 0.35866 -1.48918 5.85396 40.1722 -67.236 -49.5862 47.5794 19.1818 -9.35318 64.8761 0.58676 0.000331131 0.0646652 -72.4715 0.538149 90.4418 -2.63279 38.3184 -8.36652 -5.1874 9.5028 1.73985 -2.23434 2.38345 5.07538 -1.99201 0.00425307 83.9875 1.76775 34.7645 3.79477 4.65687 14.7335 -2.17238 2.86662 -9.1113 -21.2917 
145.804 97.8904 157.141 49.2329 -37.04 -27.3547 -70.1915 0 88.8779 74.6665 62.6152 9.00192 5.4634 13.1742 3.08328 -154.689 17.2806 171.936 -152.18 56.0386 -177.423 0.825183 -11.6533 -25.0637 -77.5964 50.6099 -71.3354 17.1809 -6.89147 -110.383 0.420957 0.000575189 0.35866 -1.3977 5.64356 39.58 -74.1132 -48.0533 42.8406 20.8942 -9.68476 66.1207 0.58676 0.000331131 0.0646652 -74.1755 -1.02965 91.1347 -2.88947 47.8484 -2.41542 -5.50775 5.69222 1.33452 -3.21544 3.71886 6.32903 -8.49529 -2.42852 86.3445 3.48703 19.9508 -1.6296 6.7741 18.3057 -3.19618 2.54989 -14.3091 -21.7967 
153.194 96.7915 167.247 52.8418 -36.6837 -26.1553 -70.1915 0 88.8779 76.5937 63.1361 6.19026 4.70871 13.3188 3.60368 -152.988 18.2049 174.615 -153.17 57.0898 -176.055 0.660021 -12.573 -26.3174 -76.8401 51.1889 -69.1264 20.9079 -5.68017 -103.752 0.420957 0.000575189 0.35866 -1.30314 5.22186 39.9062 -75.2725 -45.9187 43.8943 19.4172 -9.25785 65.3814 0.58676 0.000331131 0.0646652 -72.4882 -1.95519 91.4883 -5.65239 62.8047 0.561392 -4.33543 7.95901 1.38341 -0.301221 -3.18073 10.326 -12.7521 -4.54499 84.5269 3.79003 21.6357 -8.11885 7.77912 17.9552 -3.43795 2.26768 -9.88465 -14.069 
